PathFileType	4	(X/Y/Z)	Kaydara																																																																																																																									
DataRate	CameraRate	NumFrames	NumMarkers	Units	OrigDataRate	OrigDataStartFrame	OrigNumFrames																																																																																																																					
30	30	4	41	mm	30	1	125																																																																																																																					
Frame#	Time	EMLA_LFHD			EMLA_RFHD			EMLA_LBHD			EMLA_RBHD			EMLA_LFTShould			EMLA_RFTShould			EMLA_LRRShould			EMLA_RRRShould			EMLA_T10			EMLA_STRN			EMLA_TRUN			EMLA_LSHO			EMLA_LUPA			EMLA_LELB			EMLA_LFRM			EMLA_LWRA			EMLA_LWRB			EMLA_LFIN			EMLA_RSHO			EMLA_RUPA			EMLA_RELB			EMLA_RFRM			EMLA_RWRA			EMLA_RWRB			EMLA_RFIN			EMLA_LFWT			EMLA_RFWT			EMLA_LBWT			EMLA_RBWT			EMLA_LTHI			EMLA_LKNE			EMLA_LSHN			EMLA_LANK			EMLA_LHEE			EMLA_LTOE			EMLA_RTHI			EMLA_RKNE			EMLA_RSHN			EMLA_RANK			EMLA_RHEE			EMLA_RTOE		
		X1	Y1	Z1	X2	Y2	Z2	X3	Y3	Z3	X4	Y4	Z4	X5	Y5	Z5	X6	Y6	Z6	X7	Y7	Z7	X8	Y8	Z8	X9	Y9	Z9	X10	Y10	Z10	X11	Y11	Z11	X12	Y12	Z12	X13	Y13	Z13	X14	Y14	Z14	X15	Y15	Z15	X16	Y16	Z16	X17	Y17	Z17	X18	Y18	Z18	X19	Y19	Z19	X20	Y20	Z20	X21	Y21	Z21	X22	Y22	Z22	X23	Y23	Z23	X24	Y24	Z24	X25	Y25	Z25	X26	Y26	Z26	X27	Y27	Z27	X28	Y28	Z28	X29	Y29	Z29	X30	Y30	Z30	X31	Y31	Z31	X32	Y32	Z32	X33	Y33	Z33	X34	Y34	Z34	X35	Y35	Z35	X36	Y36	Z36	X37	Y37	Z37	X38	Y38	Z38	X39	Y39	Z39	X40	Y40	Z40	X41	Y41	Z41
																																																																																																																												
1	0.01	262.16095	1643.32733	-1957.86835	92.20457	1641.09528	-1960.96344	277.1015	1628.82278	-2107.93182	83.82204	1628.73016	-2113.41705	265.42063	1407.61566	-2013.37982	115.1197	1399.03534	-2002.30423	246.8111	1451.53702	-2161.9455	91.31929	1442.42889	-2151.10916	179.11274	1274.84985	-2199.25949	192.36145	1339.60297	-1967.78397	189.26767	1236.91879	-1944.36462	385.37987	1427.659	-2076.8335	444.87854	1244.98756	-2096.81442	467.08248	1105.69969	-2097.69485	474.14612	970.00717	-2087.612	405.25997	825.49133	-1996.2973	457.20387	806.47484	-2059.80682	457.92091	775.64308	-1996.21536	-13.29616	1427.58804	-2063.66043	-63.19901	1231.69701	-2045.55634	-72.9162	1086.16249	-2046.81107	-68.77791	984.41254	-2036.76178	11.66518	846.21658	-1914.44977	-36.4979	813.67706	-1976.83777	-44.01418	791.77292	-1916.08673	291.30636	997.60025	-1971.61499	55.58871	985.14893	-1983.83682	268.86944	1015.53085	-2171.32614	92.73623	1017.09854	-2165.64819	316.05021	728.5006	-2152.40204	321.75102	524.58801	-2108.38089	297.20631	341.36452	-2096.57303	298.67733	164.39306	-2168.30566	232.04021	84.32997	-2225.34393	270.98312	74.42607	-2027.94434	59.61399	711.69327	-2169.38187	27.35529	512.49836	-2102.78122	70.75066	290.29089	-2092.89871	31.49321	127.97602	-2170.96024	86.17028	77.27773	-2225.06226	56.19664	72.06808	-2022.79144
2	0.043	264.18568	1643.51776	-1960.01419	92.70764	1641.34628	-1961.8158	278.15464	1628.79471	-2110.10544	84.2367	1628.48663	-2114.18457	265.17685	1407.33032	-2012.34238	114.26947	1398.74481	-2003.55682	248.5507	1450.85037	-2161.30875	92.86611	1441.77887	-2152.46109	181.38597	1274.03603	-2198.85315	191.89478	1339.31641	-1967.16522	188.29962	1236.94641	-1943.72192	386.22211	1427.44308	-2074.63669	445.495	1244.60487	-2094.00757	467.54463	1105.23079	-2095.62698	474.89243	969.66972	-2086.68015	406.20373	823.93784	-1997.22687	458.45112	805.9417	-2060.75272	459.16924	774.44	-1997.70035	-12.77721	1427.02682	-2066.09589	-62.97976	1231.12991	-2048.20053	-72.6537	1085.60722	-2049.52087	-68.67619	983.86063	-2039.63913	10.974	845.73631	-1917.3111	-37.09666	812.79007	-1979.29108	-45.05569	791.83441	-1917.92221	291.05528	997.20123	-1968.29086	55.01736	985.38383	-1983.28094	270.50005	1014.82498	-2168.27179	94.4624	1016.5065	-2164.55048	316.72812	728.45238	-2149.23874	321.72012	524.29596	-2106.08231	297.02248	341.06594	-2095.31296	298.65223	164.44141	-2167.74307	232.05921	84.49184	-2225.32806	270.81892	74.38553	-2027.89444	59.98237	712.05383	-2169.11423	27.4497	512.61143	-2102.13043	70.36408	290.1318	-2093.51639	31.59096	128.10137	-2170.90088	86.33142	77.43665	-2224.95773	56.1696	72.10094	-2022.70142
3	0.077	263.37669	1642.81845	-1959.62936	93.10728	1641.29272	-1962.25021	278.98535	1627.48795	-2110.55908	84.45551	1628.26767	-2114.57581	265.25621	1407.28683	-2011.23306	114.71247	1398.83102	-2003.70834	250.29457	1450.1059	-2160.56595	94.35579	1441.17249	-2154.09576	183.56873	1273.14293	-2198.42529	191.45683	1339.35333	-1966.72699	187.47692	1237.08031	-1943.15002	386.98536	1427.00485	-2072.31155	446.3908	1244.18579	-2091.55838	468.18989	1104.76707	-2093.23578	475.7412	969.46976	-2085.28915	406.41121	822.94579	-1997.12753	459.22089	805.47043	-2060.39337	459.69017	773.53691	-1997.73483	-12.15434	1426.34537	-2068.35632	-62.57921	1230.29167	-2050.77637	-72.48363	1084.9868	-2052.68234	-68.8888	983.28461	-2042.9657	9.29287	844.91737	-1920.43823	-38.50439	811.69571	-1982.45636	-47.45458	791.66031	-1920.7489	289.84493	997.72781	-1963.81058	54.17965	985.4821	-1983.16345	272.19471	1014.25362	-2165.24734	96.24557	1015.75218	-2163.68301	317.42537	728.33519	-2146.42273	321.66779	524.0591	-2104.3161	296.92522	340.89989	-2094.42108	298.67636	164.55795	-2167.45834	232.10323	84.68616	-2225.26413	270.76355	74.37037	-2027.84332	61.23142	711.9622	-2168.42819	27.55453	512.61101	-2101.9075	70.36756	290.07675	-2093.26965	31.79071	128.18258	-2170.91965	86.55291	77.4826	-2224.8616	56.12082	72.08659	-2022.69165
4	0.11	263.61719	1642.92679	-1959.94354	93.58761	1641.13235	-1962.30011	279.24953	1627.33871	-2110.98358	84.67713	1627.78839	-2114.6579	265.17551	1407.4765	-2010.23071	113.08416	1397.77359	-2007.06055	252.04517	1449.35104	-2159.85504	96.03832	1440.48004	-2155.30518	185.8049	1272.27173	-2197.69119	190.57291	1339.60007	-1966.51535	186.6975	1237.30026	-1942.58057	387.80647	1426.72516	-2069.90082	447.30629	1244.05472	-2088.92303	469.25026	1104.60716	-2091.01776	476.43799	969.13162	-2083.12531	406.17554	822.7037	-1995.82611	459.4854	805.20981	-2058.74237	459.29955	773.15369	-1996.1026	-11.52324	1425.84808	-2070.78049	-62.18884	1229.55521	-2053.69537	-72.34585	1084.59595	-2056.17554	-69.23299	982.9393	-2046.74713	6.77396	843.76968	-1923.70575	-40.38392	810.93605	-1986.56479	-50.64823	790.93147	-1924.97238	288.93238	996.69479	-1961.8924	53.49047	985.77042	-1983.14529	273.7685	1013.57719	-2162.37381	97.90176	1015.1236	-2162.98248	317.87525	728.3709	-2143.79959	321.52328	523.7553	-2102.5473	296.80384	340.76084	-2093.60565	298.68534	164.60014	-2167.1257	232.19173	84.84743	-2225.19455	270.67282	74.31605	-2027.79449	62.13091	711.86218	-2167.34222	27.62151	512.57374	-2101.65604	70.37295	290.07542	-2092.89261	32.00092	128.25488	-2170.81207	86.77031	77.52779	-2224.73358	56.06724	72.03546	-2022.64221
